<?xml version="1.0" encoding="utf-8"?>
<!-- Generator: Adobe Illustrator 27.9.6, SVG Export Plug-In . SVG Version: 9.03 Build 54986)  -->
<svg version="1.1" id="Calque_1" xmlns="http://www.w3.org/2000/svg" xmlns:xlink="http://www.w3.org/1999/xlink" x="0px" y="0px"
	 viewBox="0 0 140.5 113.8" style="enable-background:new 0 0 140.5 113.8;" xml:space="preserve">
<style type="text/css">
	.st0{fill:#BCBCBC;}
</style>
<path class="st0" d="M77.6,46l5.9,20h4.4L93,46.8L98.1,66h4.4l7.4-24.8h-4.3l-5.2,19.4l-5-19.4h-4.7l-4.9,19.5l-4.9-19.5h-4.7
	c-2.2,3.8-4.5,6.3-4.5,6.3c0-2.3-1-4.1-2.8-5.2c-1.9-1.1-4.4-1.6-7.4-1.6c-2.6,0-4.9,0.6-6.9,1.8c-2,1.2-3.1,3.4-3.1,6.4h4
	c0.1-1.3,0.5-2.2,1-2.9c1-1.2,2.5-1.8,4.8-1.8c1.9,0,3.5,0.3,4.6,1s1.6,1.6,1.6,3.1c0,0.7-0.1,1.3-0.3,1.6c-0.4,0.7-1,1-2,1.2
	l-6.9,0.8c-2.5,0.3-4.4,1-5.9,2.3c-0.4,0.3-0.7,0.7-1,1c0.1-0.7,0.1-1.4,0.1-2.1c0-4.1-1-7.2-3.1-9.4c-2.1-2.1-4.8-3.2-8.1-3.2
	c-1.6,0-3.1,0.3-4.4,1c-1.3,0.6-2.5,1.6-3.5,2.7V31.9h-4.4V66h4.1v-3.2c1,1.3,1.9,2.1,2.7,2.7c1.4,0.9,3.1,1.3,5.1,1.3
	c3.6,0,6.4-1.3,8.4-3.9c0.7-0.9,1.3-1.9,1.7-2.9c0.1,1.9,0.9,3.4,2.2,4.7c1.5,1.4,3.5,2.1,5.9,2.1c2,0,3.8-0.4,5.5-1.2
	c1.6-0.8,2.9-1.8,3.8-2.9c0.1,1,0.4,1.7,0.7,2.3c0.7,1,1.8,1.5,3.3,1.5c0.6,0,1.1,0,1.4-0.1c0.4-0.1,0.9-0.1,1.6-0.4V63
	c-0.3,0.1-0.5,0.1-0.7,0.1s-0.4,0-0.7,0c-0.6,0-1-0.1-1.2-0.4c-0.1-0.3-0.3-0.6-0.3-1V51.4C71.7,51.4,74,50.6,77.6,46L77.6,46z
	 M45.1,60.5c-1.2,1.8-3,2.7-5.4,2.7c-3.2,0-5.4-1.3-6.6-4.1c-0.6-1.4-1-3.4-1-5.7c0-3.2,0.7-5.5,2.3-6.9c1.6-1.4,3.3-2.1,5.4-2.1
	c2.3,0,4.1,0.8,5.3,2.5c1.2,1.7,1.8,3.9,1.8,6.5C46.9,56.3,46.3,58.7,45.1,60.5z M67.4,56.7c0,2.5-1.2,4.4-3.7,5.5
	c-1.4,0.7-2.9,1-4.5,1c-1.3,0-2.3-0.4-3.3-1c-0.9-0.7-1.3-1.6-1.3-2.8c0-1.6,0.7-2.8,2-3.4c0.8-0.4,2-0.7,3.6-1l2.6-0.3
	c0.8-0.1,1.6-0.2,2.5-0.4c0.8-0.2,1.5-0.5,2-0.8L67.4,56.7C67.3,56.7,67.4,56.7,67.4,56.7z"/>
<path class="st0" d="M31.7,72.4c-0.4,0-0.7,0.1-1,0.2c-0.3,0.1-0.6,0.4-0.8,0.7v-3.1h-1v8.6h1v-0.8c0.2,0.3,0.4,0.5,0.6,0.7
	c0.3,0.2,0.7,0.4,1.2,0.4c0.8,0,1.5-0.3,2-1c0.4-0.7,0.7-1.5,0.7-2.5c0-1-0.2-1.8-0.7-2.4C33.2,72.7,32.5,72.4,31.7,72.4z
	 M32.9,77.4c-0.3,0.4-0.7,0.7-1.3,0.7c-0.7,0-1.3-0.4-1.6-1c-0.1-0.4-0.2-0.8-0.2-1.4c0-0.8,0.1-1.4,0.5-1.7
	c0.4-0.4,0.7-0.5,1.3-0.5c0.5,0,1,0.2,1.3,0.7c0.3,0.4,0.4,1,0.4,1.6C33.3,76.4,33.2,77,32.9,77.4z"/>
<path class="st0" d="M39.4,75.7c0,0.6-0.1,1.1-0.2,1.4c-0.2,0.7-0.7,1-1.4,1c-0.5,0-0.8-0.1-1-0.5c-0.1-0.2-0.1-0.4-0.1-0.7v-4.1h-1
	V77c0,0.5,0.1,1,0.2,1.3c0.3,0.6,0.9,0.9,1.8,0.9c0.5,0,1-0.1,1.4-0.5c0.2-0.1,0.4-0.4,0.5-0.6v0.9h1v-6.2h-1
	C39.4,72.7,39.4,75.7,39.4,75.7z"/>
<path class="st0" d="M46.4,75.8c-0.2-0.1-0.7-0.4-1.6-0.5l-0.7-0.1c-0.3-0.1-0.5-0.1-0.7-0.2c-0.3-0.2-0.4-0.4-0.4-0.7
	c0-0.2,0.1-0.4,0.3-0.6c0.2-0.1,0.5-0.2,0.9-0.2c0.6,0,1,0.1,1.3,0.4c0.1,0.2,0.2,0.4,0.2,0.7h1c0-0.4-0.1-0.7-0.4-1.1
	c-0.4-0.5-1.1-0.8-2.1-0.8c-0.7,0-1.3,0.1-1.7,0.5s-0.7,0.8-0.7,1.4c0,0.5,0.2,0.9,0.7,1.2c0.2,0.1,0.7,0.3,1.2,0.4l0.8,0.2
	c0.4,0.1,0.7,0.2,0.9,0.3c0.2,0.1,0.4,0.4,0.4,0.6c0,0.4-0.1,0.6-0.4,0.7c-0.1,0.1-0.4,0.1-0.8,0.1c-0.7,0-1.1-0.1-1.4-0.5
	c-0.1-0.1-0.2-0.4-0.3-0.8h-1c0,0.6,0.2,1.1,0.6,1.6c0.4,0.4,1,0.6,2,0.6c0.9,0,1.5-0.2,1.9-0.6S47,77.5,47,77S46.8,76.1,46.4,75.8z
	"/>
<rect x="48.2" y="72.6" class="st0" width="1" height="6.2"/>
<rect x="48.2" y="70.3" class="st0" width="1" height="1.2"/>
<path class="st0" d="M53.8,72.5c-0.4,0-0.7,0.1-1.1,0.2c-0.3,0.1-0.7,0.4-1,0.8v-0.9h-1v6.2h1v-3.3c0-0.4,0-0.7,0.1-1
	c0.1-0.2,0.1-0.4,0.4-0.7c0.2-0.2,0.4-0.4,0.7-0.5c0.1-0.1,0.4-0.1,0.6-0.1c0.5,0,0.8,0.2,1,0.6c0.1,0.2,0.1,0.5,0.1,0.9v4h1v-4
	c0-0.6-0.1-1.1-0.2-1.4C55.3,72.8,54.7,72.5,53.8,72.5z"/>
<path class="st0" d="M62.6,74.6c-0.1-0.4-0.2-0.8-0.4-1.1c-0.2-0.3-0.5-0.6-1-0.8s-0.8-0.3-1.3-0.3c-0.9,0-1.6,0.3-2.1,1
	C57.3,74,57,74.8,57,75.8s0.3,1.8,0.8,2.4c0.5,0.6,1.2,0.8,1.9,0.8c0.3,0,0.6,0,0.8-0.1c0.4-0.1,0.8-0.3,1.2-0.6
	c0.2-0.1,0.4-0.4,0.5-0.7c0.1-0.3,0.2-0.5,0.3-0.7h-1c-0.1,0.3-0.2,0.5-0.4,0.7c-0.3,0.4-0.7,0.5-1.3,0.5c-0.6,0-1-0.2-1.3-0.6
	c-0.3-0.4-0.4-0.9-0.4-1.5h4.6C62.7,75.4,62.6,74.9,62.6,74.6z M58.2,75.2c0-0.5,0.2-1,0.5-1.3c0.3-0.4,0.7-0.5,1.2-0.5
	c0.7,0,1.1,0.2,1.4,0.7c0.1,0.3,0.2,0.6,0.3,1.1H58.2z"/>
<path class="st0" d="M68.2,75.8c-0.2-0.1-0.7-0.4-1.6-0.5L66,75.1c-0.3-0.1-0.5-0.1-0.7-0.2c-0.3-0.1-0.4-0.4-0.4-0.7
	c0-0.2,0.1-0.4,0.3-0.6c0.2-0.1,0.5-0.2,0.9-0.2c0.6,0,1,0.1,1.3,0.4c0.1,0.2,0.2,0.4,0.2,0.7h1c0-0.4-0.1-0.7-0.4-1.1
	c-0.4-0.5-1.1-0.8-2.1-0.8c-0.7,0-1.3,0.1-1.7,0.5c-0.4,0.4-0.7,0.8-0.7,1.4c0,0.5,0.2,0.9,0.7,1.2c0.2,0.1,0.7,0.3,1.2,0.4l0.8,0.2
	c0.4,0.1,0.7,0.2,0.9,0.3c0.2,0.1,0.4,0.4,0.4,0.6c0,0.4-0.1,0.6-0.4,0.7c-0.3,0.1-0.7,0.2-1,0.2c-0.7,0-1.1-0.1-1.4-0.5
	c-0.1-0.1-0.2-0.4-0.3-0.8h-1c0,0.6,0.2,1.1,0.6,1.6c0.4,0.4,1,0.6,2,0.6c0.9,0,1.5-0.2,1.9-0.6c0.4-0.4,0.7-0.9,0.7-1.4
	C68.8,76.4,68.6,76.1,68.2,75.8z"/>
<path class="st0" d="M74.2,75.8c-0.2-0.1-0.7-0.4-1.6-0.5L72,75.1c-0.3-0.1-0.5-0.1-0.7-0.2c-0.3-0.1-0.4-0.4-0.4-0.7
	c0-0.2,0.1-0.4,0.3-0.6c0.2-0.1,0.5-0.2,0.9-0.2c0.6,0,1,0.1,1.3,0.4c0.1,0.2,0.2,0.4,0.2,0.7h1c0-0.4-0.1-0.7-0.4-1.1
	c-0.4-0.5-1.1-0.8-2.1-0.8c-0.7,0-1.3,0.1-1.7,0.5c-0.4,0.4-0.7,0.8-0.7,1.4c0,0.5,0.2,0.9,0.7,1.2c0.2,0.1,0.7,0.3,1.2,0.4l0.8,0.2
	c0.4,0.1,0.7,0.2,0.9,0.3c0.2,0.1,0.4,0.4,0.4,0.6c0,0.4-0.1,0.6-0.4,0.7c-0.3,0.1-0.7,0.2-1,0.2c-0.7,0-1.1-0.1-1.4-0.5
	c-0.1-0.1-0.2-0.4-0.3-0.8h-1c0,0.6,0.2,1.1,0.6,1.6c0.4,0.4,1,0.6,2,0.6c0.9,0,1.5-0.2,1.9-0.6c0.4-0.4,0.7-0.9,0.7-1.4
	C74.8,76.4,74.6,76.1,74.2,75.8z"/>
<path class="st0" d="M81.2,78.2c-0.1,0-0.2,0-0.3-0.1s-0.1-0.1-0.1-0.3v-3.6c0-0.6-0.2-1-0.7-1.3c-0.4-0.3-1-0.4-1.8-0.4
	c-0.6,0-1.2,0.1-1.6,0.4c-0.4,0.3-0.7,0.8-0.7,1.6h1c0.1-0.3,0.1-0.6,0.2-0.7c0.2-0.3,0.6-0.4,1.2-0.4c0.4,0,0.8,0.1,1.1,0.2
	c0.2,0.1,0.4,0.4,0.4,0.7c0,0.1,0,0.3-0.1,0.4c-0.1,0.1-0.2,0.3-0.4,0.3l-1.6,0.2c-0.6,0.1-1,0.3-1.4,0.6c-0.4,0.3-0.5,0.7-0.5,1.3
	c0,0.5,0.1,1,0.5,1.3s0.8,0.5,1.4,0.5c0.4,0,0.9-0.1,1.3-0.3c0.4-0.2,0.7-0.4,0.9-0.7c0,0.2,0.1,0.4,0.1,0.6
	c0.1,0.2,0.4,0.4,0.8,0.4c0.1,0,0.3,0,0.4,0c0.1,0,0.2-0.1,0.4-0.1v-0.7c-0.1,0-0.1,0-0.1,0C81.3,78.1,81.2,78.2,81.2,78.2z
	 M79.8,76.5c0,0.7-0.3,1.1-0.9,1.4c-0.4,0.1-0.7,0.2-1,0.2c-0.3,0-0.6-0.1-0.8-0.2c-0.2-0.1-0.3-0.4-0.3-0.7c0-0.4,0.1-0.7,0.5-0.9
	c0.2-0.1,0.4-0.2,0.8-0.2l0.6-0.1c0.2,0,0.4-0.1,0.6-0.1c0.2-0.1,0.4-0.1,0.5-0.2V76.5z"/>
<path class="st0" d="M83.8,70.8h-1v1.7h-0.8v0.8h0.8v4.1c0,0.4,0.1,0.7,0.3,1c0.1,0.2,0.5,0.4,1,0.4c0.1,0,0.3,0,0.4,0
	c0.1,0,0.2-0.1,0.4-0.1v-0.8c-0.1,0-0.1,0-0.2,0s-0.1,0-0.1,0c-0.2,0-0.3,0-0.4-0.1c-0.1-0.1-0.2-0.2-0.2-0.4v-4h0.9v-0.8h-1
	C83.8,72.6,83.8,70.8,83.8,70.8z"/>
<polygon class="st0" points="91.1,77.5 89.9,72.6 88.7,72.6 87.5,77.5 86.3,72.6 85.2,72.6 86.9,78.8 88.1,78.8 89.3,74 90.5,78.8 
	91.6,78.8 93.4,72.6 92.4,72.6 "/>
<path class="st0" d="M96.9,72.4c-0.9,0-1.6,0.3-2.1,0.9c-0.5,0.6-0.8,1.4-0.8,2.5c0,1,0.2,1.7,0.7,2.3c0.5,0.6,1.2,0.9,2,0.9
	c1,0,1.8-0.3,2.2-1c0.4-0.7,0.7-1.5,0.7-2.5c0-1-0.3-1.8-0.8-2.4C98.4,72.6,97.7,72.4,96.9,72.4z M98.3,77.3
	c-0.2,0.5-0.7,0.8-1.4,0.8c-0.6,0-1-0.2-1.3-0.7c-0.3-0.4-0.4-1-0.4-1.6c0-0.7,0.1-1.3,0.4-1.8c0.3-0.5,0.7-0.7,1.3-0.7
	c0.7,0,1.2,0.3,1.5,0.9c0.1,0.4,0.3,0.8,0.3,1.4C98.7,76.3,98.5,76.8,98.3,77.3z"/>
<path class="st0" d="M103.8,72.5c-0.4,0-0.7,0.1-1.1,0.4c-0.3,0.3-0.5,0.5-0.6,0.7v-1h-1v6.2h1v-3.6c0-0.4,0.1-0.8,0.4-1.2
	s0.7-0.5,1.2-0.5c0.1,0,0.1,0,0.1,0c0.1,0,0.1,0,0.1,0v-1.1C104,72.4,103.9,72.4,103.8,72.5L103.8,72.5z"/>
<polygon class="st0" points="107.6,74.9 110,72.6 108.7,72.6 106,75.2 106,70.3 105,70.3 105,78.8 106,78.8 106,76.5 106.9,75.7 
	108.8,78.8 110.1,78.8 "/>
</svg>
