<?xml version="1.0" encoding="utf-8"?>
<!-- Generator: Adobe Illustrator 27.9.5, SVG Export Plug-In . SVG Version: 9.03 Build 54986)  -->
<svg version="1.1" id="Calque_1" xmlns="http://www.w3.org/2000/svg" xmlns:xlink="http://www.w3.org/1999/xlink" x="0px" y="0px"
	 viewBox="0 0 309.4 32.5" style="enable-background:new 0 0 309.4 32.5;" xml:space="preserve">
<style type="text/css">
	.st0{fill:#BCBCBC;}
	.st1{font-family:'ArialMT';}
	.st2{font-size:6px;}
</style>
<g id="Groupe_3110" transform="translate(-457.601 -472.577)">
	<path id="Tracé_3784" class="st0" d="M526.1,474.9v4.2H522v-4.2H526.1z M526.1,482.5v21.9H522v-21.9H526.1z"/>
	<path id="Tracé_3785" class="st0" d="M549.8,489.9h-4.1c-0.4-2.6-2.7-4.4-5.3-4.1c-3.3,0-6.1,2.3-6.1,7.8c0,5.5,2.8,8,6.1,8
		c2.6,0.2,4.9-1.6,5.5-4.1h4.2c-1,4.6-5.1,7.8-9.8,7.7c-6.3,0-10.2-4.8-10.2-11.5c0-6.5,4.1-11.4,10.6-11.4
		C545.2,482.1,549.1,485.4,549.8,489.9z"/>
	<path id="Tracé_3786" class="st0" d="M557.9,485.8c1.3-2.1,3.4-3.7,7.1-3.7c5.3,0,7.2,3.4,7.2,8.4v13.9h-4.2v-12.8
		c0-3.4-0.1-5.8-4.4-5.8c-3.6,0-5.8,1.9-5.8,6.7v11.9h-4.2v-29.6h4.2L557.9,485.8z"/>
	<path id="Tracé_3787" class="st0" d="M580.6,494.7c0.1,4.7,3.2,6.1,6.4,6.1c3.3,0,4.2-0.6,5.7-2.7h4.2c-1,3.8-4.5,6.9-9.8,6.9
		c-6.9,0-10.8-5-10.8-11.5c0-7,4.6-11.4,10.6-11.4c6.7,0,10.7,5.6,10.2,12.6H580.6z M580.6,490.5H593c-0.3-2.1-2.5-4.2-6.1-4.2
		C584.6,486.3,581.5,487.4,580.6,490.5L580.6,490.5z"/>
	<path id="Tracé_3788" class="st0" d="M722.8,485.9c1.3-2.1,3.4-3.7,7.1-3.7c5.3,0,7.2,3.4,7.2,8.4v13.9h-4.2v-12.8
		c0-3.4-0.1-5.8-4.4-5.8c-3.6,0-5.8,1.9-5.8,6.7v11.9h-4.2V475h4.2L722.8,485.9z"/>
	<path id="Tracé_3789" class="st0" d="M745.4,494.8c0.1,4.7,3.2,6.1,6.4,6.1c3.3,0,4.2-0.6,5.7-2.7h4.2c-1,3.8-4.5,6.9-9.8,6.9
		c-6.9,0-10.8-5-10.8-11.5c0-7,4.6-11.4,10.6-11.4c6.7,0,10.7,5.6,10.2,12.6L745.4,494.8z M745.4,490.6h12.4
		c-0.3-2.1-2.5-4.2-6.1-4.2C749.4,486.4,746.3,487.5,745.4,490.6L745.4,490.6z"/>
	<path id="Tracé_3790" class="st0" d="M602.5,475h4.1v6.4h3.7v4.1h-3.7v13c0,0.7-0.3,1.8,1.8,1.8h1.9v4.2h-2.7
		c-4.2,0-5.2-0.9-5.2-5.5v-13.5h-3.5v-4.1h3.5L602.5,475z"/>
	<path id="Tracé_3791" class="st0" d="M648.5,498.7c0-5.2,5.9-7.3,14.8-8.2l0,0c0-3.7-2.2-5.1-5-5.1c-2.4-0.2-4.5,1.5-4.7,3.9
		c0,0.1,0,0.2,0,0.2h-4.1c0.3-4.7,4.6-7.4,8.8-7.4c6.2,0,9.2,2.8,9.2,9l0,5.1c-0.1,2.8,0,5.5,0.5,8.3h-4.2c-0.2-1-0.3-2-0.3-3
		c-1.3,2.3-3.6,3.5-7.5,3.5C651.9,505.1,648.5,502.8,648.5,498.7z M663.6,494c-6.7,1-10.5,1.8-10.5,4.8c0,2.1,2.1,2.8,3.5,2.8
		c3.5,0,7-1.9,7-7.1L663.6,494z"/>
	<path id="Tracé_3792" class="st0" d="M685.7,501.4c-1.2,2.4-3.7,3.9-6.4,3.7c-5.1,0-7-3.4-7-8.4v-14h4.2v12.9c0,3.4,1.1,5.1,4,5.1
		c3.6,0,5.3-3.1,5.3-7.9v-10.2h4.2v21.9h-4.2L685.7,501.4z"/>
	<text transform="matrix(1 0 0 1 762.006 477.577)" class="st0 st1 st2">®</text>
	<g id="Groupe_3107" transform="translate(499.7 474.912)">
		<rect id="Rectangle_1043" x="0" y="16" class="st0" width="4.2" height="13.6"/>
		<rect id="Rectangle_1044" x="4.2" y="11.8" class="st0" width="14.2" height="4.2"/>
		<path id="Tracé_3793" class="st0" d="M19.2,4.2V0H0v11.8h4.2V4.2L19.2,4.2z"/>
	</g>
	<g id="Groupe_3108" transform="translate(622.952 474.956)">
		<path id="Tracé_3794" class="st0" d="M17.8,13.8c2.1-1.2,3.4-3.5,3.3-5.9C21,2.1,16.1,0,10.6,0H0v11.8h4.1v4.1H0v13.6h11.7
			c5.9,0,10.6-2.4,10.6-8.7C22.3,17.2,20.6,15,17.8,13.8z M4.2,4.2h7.1c3.3,0,5.5,1.6,5.5,3.7c0,3.5-2.1,3.9-5.5,3.9H4.2V4.2z
			 M11.7,25.4H4.2V16h7.3c4.5,0,6.5,1.5,6.5,4.9C18,23.7,15.9,25.4,11.7,25.4L11.7,25.4z"/>
	</g>
	<path id="Tracé_3795" class="st0" d="M714,489.9h-4.1c-0.4-2.6-2.7-4.4-5.3-4.1c-3.3,0-6.1,2.3-6.1,7.8c0,5.5,2.8,8,6.1,8
		c2.6,0.2,4.9-1.6,5.5-4.1h4.2c-1,4.6-5.1,7.8-9.8,7.7c-6.3,0-10.2-4.8-10.2-11.5c0-6.5,4.1-11.4,10.6-11.4
		C709.4,482.1,713.3,485.4,714,489.9z"/>
	<g id="Groupe_3109" transform="translate(457.601 475.181)">
		<path id="Tracé_3796" class="st0" d="M0,0v29.8h29.8v-14h-7.8v-4.2h7.8V0H0z M17.8,15.7H9.9v-4.2h7.8V15.7z M21.9,23.6h-4.2v-7.8
			h4.2L21.9,23.6z M21.9,11.6h-4.2V3.7h4.2L21.9,11.6z"/>
	</g>
</g>
</svg>
