<svg width="92" height="31" viewBox="0 0 92 31" fill="none" xmlns="http://www.w3.org/2000/svg">
<g clip-path="url(#clip0_600_5342)">
<path d="M54.2434 0.99707V4.80209H54.5824L58.3043 2.34666H60.1727V17.6067L58.2785 19.1501V19.4838H66.5156V19.1501L64.6462 17.6067V2.34666H66.573L70.2678 4.80209H70.6067V0.99707H54.2434Z" fill="#BCBCBC"/>
<path d="M24.511 19.1739H28.7594V1.08521H24.511V19.1739Z" fill="#BCBCBC"/>
<mask id="mask0_600_5342" style="mask-type:luminance" maskUnits="userSpaceOnUse" x="0" y="0" width="92" height="31">
<path d="M91.9407 0.82666H0.940674V30.8267H91.9407V0.82666Z" fill="white"/>
</mask>
<g mask="url(#mask0_600_5342)">
<path d="M13.0469 12.1435H15.276L15.2651 12.177C14.4222 13.9919 12.9913 15.2911 10.3234 15.2911C7.65542 15.2911 5.24148 12.8861 5.24148 10.1556C5.24306 8.78736 5.80548 7.47483 6.80684 6.50254C7.8082 5.53025 9.16779 4.97655 10.5909 4.96146C11.2977 4.96289 11.9971 5.09903 12.6487 5.36201C13.3004 5.62499 13.8913 6.00958 14.3874 6.49355L17.4205 3.53191C16.0646 2.23522 14.339 1.35445 12.4622 1.00109C10.5854 0.647724 8.64166 0.837664 6.87716 1.54686C5.11266 2.25606 3.6067 3.45262 2.54993 4.98508C1.49315 6.51754 0.933077 8.31698 0.940603 10.1556C0.925618 12.5555 1.88477 14.8664 3.61418 16.5971C5.34359 18.3278 7.7069 19.3419 10.2018 19.4237H10.7545V19.4181C12.8838 19.3283 14.9232 18.5673 16.5579 17.2526C18.1927 15.9379 19.332 14.1425 19.8001 12.1435V11.1732C19.8001 10.296 19.8001 9.06629 19.8001 8.55096V8.38715H13.0469V12.1435Z" fill="#BCBCBC"/>
<path d="M46.2606 10.7496H46.234L35.5089 0.82666H34.3284L34.3505 19.1739H38.5728V9.04458H38.5994L49.2793 19.4329H50.5068V1.08737H46.2584L46.2606 10.7496Z" fill="#BCBCBC"/>
<path d="M91.9193 9.73684C91.8338 8.49713 91.4948 7.28581 90.9217 6.1722C90.3487 5.05859 89.5529 4.06455 88.5798 3.24696C87.6067 2.42938 86.4755 1.8043 85.2508 1.4075C84.0262 1.0107 82.7321 0.849963 81.4428 0.934496C79.5017 1.05484 77.6416 1.72738 76.0991 2.86663C74.5566 4.00587 73.4012 5.56036 72.78 7.33246C72.1588 9.10457 72.0997 11.0142 72.6102 12.8187C73.1208 14.6232 74.1779 16.241 75.6473 17.4664C77.4246 18.9613 79.7068 19.7838 82.0683 19.7806C82.3024 19.7806 82.5371 19.7726 82.7725 19.7567C84.0598 19.6829 85.3192 19.3644 86.4776 18.8196C87.6361 18.2747 88.6706 17.5144 89.5213 16.5825C90.372 15.6507 91.0219 14.5658 91.4336 13.3908C91.8452 12.2158 92.0103 10.9736 91.9193 9.73684ZM88.7863 13.4702C88.7854 13.8986 88.7263 14.3252 88.6105 14.7389C88.4033 15.527 87.9439 16.2325 87.2971 16.7559C86.8928 17.044 86.4324 17.2509 85.9432 17.3644C85.4541 17.4778 84.9461 17.4955 84.4497 17.4164C82.5352 17.1618 80.8553 16.2984 79.1617 14.7003C77.333 13.0605 76.0735 10.9193 75.5542 8.56757C75.3684 7.73647 75.3735 6.87641 75.5691 6.0474C75.7204 5.24725 76.1636 4.5252 76.8189 4.01096C77.4742 3.49672 78.2989 3.22398 79.1446 3.24175C79.366 3.24207 79.5871 3.25776 79.8062 3.28868C81.922 3.72551 83.8512 4.76659 85.341 6.27552C85.341 6.27552 87.8426 8.69227 88.6109 11.9185C88.7285 12.4275 88.7873 12.9475 88.7863 13.4689" fill="#BCBCBC"/>
<path d="M15.3772 26.8782H15.784V28.5476H17.9674V26.8782H18.3742V30.7288H17.9674V28.9069H15.7844V30.7288H15.3776L15.3772 26.8782Z" fill="#BCBCBC"/>
<path d="M24.9037 28.804C24.907 29.0815 24.8532 29.3569 24.7455 29.6144C24.6458 29.8533 24.497 30.0704 24.3078 30.2526C24.1187 30.4349 23.8933 30.5786 23.645 30.675C23.1127 30.8777 22.52 30.8777 21.9877 30.675C21.7394 30.5786 21.514 30.4349 21.3248 30.2526C21.1357 30.0704 20.9869 29.8533 20.8871 29.6144C20.676 29.0932 20.676 28.5148 20.8871 27.9936C20.9867 27.7546 21.1355 27.5374 21.3246 27.3552C21.5138 27.1729 21.7393 27.0293 21.9877 26.933C22.5199 26.73 23.1127 26.73 23.645 26.933C23.8933 27.0294 24.1187 27.1731 24.3078 27.3554C24.497 27.5376 24.6458 27.7547 24.7455 27.9936C24.8532 28.2511 24.907 28.5265 24.9037 28.804ZM24.4626 28.804C24.4636 28.5881 24.4253 28.3737 24.3496 28.1705C24.2778 27.9751 24.1673 27.7949 24.0242 27.6399C23.8797 27.4855 23.7035 27.3615 23.5067 27.2758C23.2886 27.186 23.0538 27.1397 22.8166 27.1397C22.5793 27.1397 22.3445 27.186 22.1264 27.2758C21.9297 27.3616 21.7535 27.4856 21.6089 27.6399C21.4659 27.795 21.3554 27.9751 21.2835 28.1705C21.133 28.5804 21.133 29.0276 21.2835 29.4375C21.3554 29.6328 21.4659 29.8128 21.6089 29.9676C21.7535 30.1221 21.9297 30.2462 22.1264 30.3322C22.3446 30.4218 22.5793 30.468 22.8166 30.468C23.0538 30.468 23.2886 30.4218 23.5067 30.3322C23.7036 30.2463 23.8798 30.1222 24.0242 29.9676C24.1674 29.8128 24.2779 29.6328 24.3496 29.4375C24.4253 29.2343 24.4636 29.0199 24.4626 28.804Z" fill="#BCBCBC"/>
<path d="M28.5414 30.7288H28.1346V27.2371H26.7932V26.8782H29.8819V27.2371H28.5414V30.7288Z" fill="#BCBCBC"/>
<path d="M32.4499 30.3699H34.5941V30.7288H32.0427V26.8782H34.5263V27.2371H32.4499V28.5476H34.3902V28.9065H32.4499V30.3699Z" fill="#BCBCBC"/>
<path d="M37.344 30.3699H39.2106V30.7288H36.9363V26.8782H37.3431L37.344 30.3699Z" fill="#BCBCBC"/>
<path d="M43.1986 27.5148C43.1142 27.3931 42.9985 27.2945 42.8626 27.2287C42.7267 27.1629 42.5754 27.1321 42.4235 27.1394C42.3182 27.1393 42.2135 27.153 42.1121 27.1802C42.0136 27.206 41.9208 27.2483 41.8377 27.3053C41.7561 27.3623 41.6893 27.4367 41.6425 27.5226C41.5914 27.6194 41.5661 27.7269 41.5688 27.8354C41.5641 27.9094 41.5752 27.9835 41.6015 28.0532C41.6277 28.1228 41.6686 28.1866 41.7216 28.2404C41.8312 28.3416 41.9597 28.4219 42.1003 28.4772C42.2623 28.5425 42.4283 28.5979 42.5975 28.6432C42.7707 28.6892 42.9375 28.7549 43.0946 28.8387C43.2437 28.9191 43.3729 29.0296 43.4734 29.1624C43.5839 29.3252 43.6374 29.5176 43.6262 29.7117C43.6287 29.8754 43.5887 30.0371 43.51 30.1822C43.4355 30.3188 43.3313 30.4384 43.2045 30.5329C43.0767 30.6278 42.9333 30.7012 42.7801 30.7501C42.628 30.8002 42.4685 30.8258 42.3078 30.8262C42.0679 30.8274 41.8303 30.7821 41.609 30.6932C41.3828 30.6002 41.1878 30.4485 41.0459 30.2552L41.4192 29.9997C41.5064 30.1417 41.6311 30.259 41.7808 30.3395C41.9481 30.4278 42.1368 30.4719 42.3277 30.4673C42.4311 30.467 42.5338 30.4515 42.6323 30.4212C42.7303 30.3915 42.8221 30.3455 42.9035 30.2852C42.9845 30.225 43.0525 30.1502 43.1037 30.0649C43.1573 29.9737 43.1844 29.8703 43.1823 29.7655C43.187 29.6483 43.1567 29.5322 43.0951 29.431C43.0355 29.3413 42.9562 29.2652 42.8628 29.2081C42.7603 29.1454 42.65 29.0952 42.5347 29.0586C42.412 29.0186 42.2856 28.9788 42.1555 28.9391C42.0253 28.8994 41.899 28.8541 41.7767 28.8031C41.658 28.7546 41.5474 28.6894 41.4486 28.6097C41.35 28.5291 41.2707 28.4289 41.2163 28.316C41.1535 28.1763 41.1237 28.0249 41.1291 27.8728C41.125 27.7053 41.1629 27.5393 41.2393 27.3888C41.3096 27.255 41.4101 27.138 41.5336 27.0464C41.6578 26.9548 41.7989 26.8866 41.9494 26.8452C42.3084 26.7464 42.6907 26.7598 43.0413 26.8834C43.2412 26.9629 43.4179 27.088 43.5561 27.248L43.1986 27.5148Z" fill="#BCBCBC"/>
<path d="M50.9946 27.5148C50.9103 27.393 50.7945 27.2944 50.6587 27.2286C50.5228 27.1628 50.3715 27.1321 50.2195 27.1394C50.1143 27.1393 50.0095 27.153 49.9081 27.1802C49.8097 27.2059 49.7168 27.2483 49.6338 27.3053C49.5521 27.3623 49.4853 27.4366 49.4385 27.5226C49.3875 27.6194 49.3622 27.7269 49.3649 27.8354C49.3602 27.9094 49.3713 27.9835 49.3976 28.0531C49.4239 28.1228 49.4647 28.1865 49.5176 28.2404C49.6274 28.3416 49.756 28.4219 49.8968 28.4772C50.058 28.5424 50.2233 28.5978 50.3917 28.6432C50.5649 28.6892 50.7318 28.7548 50.8889 28.8387C51.038 28.919 51.1672 29.0294 51.2676 29.1624C51.3781 29.3252 51.4316 29.5176 51.4204 29.7117C51.423 29.8754 51.3831 30.0371 51.3042 30.1822C51.2297 30.3188 51.1255 30.4384 50.9987 30.5329C50.871 30.6279 50.7275 30.7013 50.5743 30.7501C50.4223 30.8002 50.2627 30.8258 50.102 30.8262C49.8622 30.8273 49.6246 30.7821 49.4033 30.6932C49.1771 30.6002 48.9823 30.4486 48.8406 30.2552L49.2139 29.9997C49.301 30.1418 49.4258 30.259 49.5755 30.3395C49.7428 30.4278 49.9315 30.4719 50.1223 30.4673C50.2256 30.467 50.3282 30.4515 50.4265 30.4212C50.5253 30.3918 50.6179 30.3457 50.7 30.2852C50.7808 30.2249 50.8488 30.1501 50.9002 30.0649C50.9536 29.9736 50.9808 29.8703 50.9788 29.7655C50.9833 29.6483 50.9529 29.5322 50.8911 29.431C50.8316 29.3412 50.7523 29.2652 50.6588 29.2081C50.5565 29.1454 50.4464 29.0952 50.3312 29.0586C50.2082 29.0186 50.0818 28.9788 49.952 28.9391C49.8221 28.8994 49.6957 28.8541 49.5728 28.8031C49.4542 28.7545 49.3438 28.6894 49.2451 28.6097C49.1464 28.5292 49.0671 28.429 49.0128 28.316C48.9497 28.1764 48.9197 28.025 48.9251 27.8728C48.9211 27.7053 48.9589 27.5393 49.0354 27.3888C49.1057 27.255 49.2062 27.138 49.3296 27.0464C49.4537 26.9549 49.5946 26.8866 49.745 26.8452C50.104 26.7464 50.4863 26.7598 50.8369 26.8834C51.0368 26.9628 51.2135 27.088 51.3517 27.248L50.9946 27.5148Z" fill="#BCBCBC"/>
<path d="M53.7837 26.8782H54.1905V28.5476H56.3743V26.8782H56.7811V30.7288H56.3743V28.9069H54.1905V30.7288H53.7837V26.8782Z" fill="#BCBCBC"/>
<path d="M59.3392 30.7293H58.8638L60.6065 26.8787H61.0025L62.7448 30.7293H62.2693L61.8282 29.7178H59.7799L59.3392 30.7293ZM59.9331 29.3589H61.6696L60.804 27.3358L59.9331 29.3589Z" fill="#BCBCBC"/>
<path d="M65.2337 28.548H65.2902L67.174 26.8786H67.7566L65.7372 28.6245L67.8678 30.7288H67.268L65.2993 28.744H65.2315V30.7288H64.8247V26.8782H65.2315L65.2337 28.548Z" fill="#BCBCBC"/>
<path d="M70.335 30.3699H72.4791V30.7288H69.9282V26.8782H72.414V27.2371H70.335V28.5476H72.2784V28.9065H70.335V30.3699Z" fill="#BCBCBC"/>
<path d="M75.2298 30.7289H74.823V26.8783H76.056C76.3978 26.8601 76.7365 26.9498 77.0204 27.1338C77.1401 27.2252 77.2349 27.3433 77.2964 27.4778C77.358 27.6124 77.3846 27.7593 77.3739 27.9059C77.381 28.1558 77.2867 28.3986 77.1108 28.5829C76.9085 28.7779 76.6366 28.8918 76.3502 28.9014L77.504 30.7285H77.0069L75.9095 28.9396H75.2316L75.2298 30.7289ZM75.2298 28.5807H75.9529C76.1085 28.5838 76.2637 28.5655 76.4139 28.5264C76.5236 28.498 76.6264 28.449 76.7163 28.3821C76.7888 28.326 76.8453 28.253 76.8803 28.1701C76.9149 28.0862 76.9322 27.9966 76.9314 27.9063C76.9319 27.8179 76.9145 27.7303 76.8803 27.6482C76.8449 27.5648 76.7885 27.4911 76.7163 27.4336C76.6273 27.3654 76.5242 27.3162 76.4139 27.2893C76.2634 27.2521 76.1083 27.2347 75.9529 27.2376H75.2298V28.5807Z" fill="#BCBCBC"/>
</g>
</g>
<defs>
<clipPath id="clip0_600_5342">
<rect width="91" height="30" fill="white" transform="translate(0.940674 0.82666)"/>
</clipPath>
</defs>
</svg>
