<?xml version="1.0" encoding="utf-8"?>
<!-- Generator: Adobe Illustrator 27.9.6, SVG Export Plug-In . SVG Version: 9.03 Build 54986)  -->
<svg version="1.1" id="Calque_1" xmlns="http://www.w3.org/2000/svg" xmlns:xlink="http://www.w3.org/1999/xlink" x="0px" y="0px"
	 viewBox="0 0 150 80" style="enable-background:new 0 0 150 80;" xml:space="preserve">
<style type="text/css">
	.st0{fill:#BCBCBC;}
</style>
<g>
	<path class="st0" d="M42.5,53.5c-4.5,0-6.8-3.1-6.8-3.1s0.1,4.4,1.5,7.7h-4.8c1.4-3.3,1.6-7.7,1.6-7.7s-2.2,3.1-6.8,3.1
		c-4.5,0-8.2-3.7-8.2-8.2c0-2.7,1.3-5.2,3.6-6.8l1.3-0.9l-1.3-0.9c-2.2-1.5-3.6-4.1-3.6-6.8c0-4.5,3.7-8.2,8.2-8.2
		c2.7,0,5.2,1.3,6.8,3.6l0.9,1.3l0.9-1.3c1.5-2.2,4.1-3.6,6.8-3.6c4.5,0,8.2,3.7,8.2,8.2c0,2.7-1.3,5.2-3.6,6.8l-1.3,0.9l1.3,0.9
		c2.2,1.5,3.6,4.1,3.6,6.8C50.7,49.8,47,53.5,42.5,53.5 M49.4,37.7c2.1-1.9,3.4-4.7,3.4-7.6c0-5.7-4.6-10.3-10.3-10.3
		c-2.9,0-5.7,1.2-7.6,3.4c-1.9-2.1-4.7-3.4-7.6-3.4c-5.7,0-10.3,4.6-10.3,10.3c0,2.9,1.2,5.7,3.4,7.6c-2.1,1.9-3.4,4.7-3.4,7.6
		c0,5.7,4.6,10.3,10.3,10.3c1.3,0,2.8-0.3,4.1-0.9c-0.9,2.9-2.4,5.5-2.4,5.5h11.8c0,0-1.6-2.5-2.4-5.5c1.3,0.5,2.8,0.9,4.2,0.9
		c5.7,0,10.3-4.6,10.3-10.3C52.8,42.4,51.6,39.6,49.4,37.7 M38.9,36.9l-1-0.1c-0.7-0.1-1.2-0.1-1.6-0.5c-0.4-0.4-0.4-0.9-0.5-1.6
		l-0.1-1c-0.2-2-0.4-3.9-0.7-4.6l-0.1-0.3l-0.1,0.3c-0.3,0.6-0.5,2.5-0.7,4.6l-0.1,1c-0.1,0.7-0.1,1.2-0.5,1.6
		c-0.4,0.4-0.9,0.4-1.6,0.5l-1,0.1c-2,0.2-3.9,0.4-4.6,0.7l-0.3,0.1l0.3,0.1c0.6,0.3,2.5,0.5,4.6,0.7l1,0.1c0.7,0.1,1.2,0.1,1.6,0.5
		c0.4,0.4,0.4,0.9,0.5,1.6l0.1,1c0.2,2,0.4,3.9,0.7,4.6l0.1,0.3l0.1-0.3c0.3-0.6,0.5-2.5,0.7-4.6l0.1-1c0.1-0.7,0.1-1.2,0.5-1.6
		c0.4-0.4,0.9-0.4,1.6-0.5l1-0.1c2-0.2,3.9-0.4,4.6-0.7l0.3-0.1l-0.3-0.1C42.8,37.3,40.9,37.1,38.9,36.9"/>
	<path class="st0" d="M88.6,42.4h-3.5v-5.2h3.5c2.8,0,4.4,0.9,4.4,2.6C93,41.6,91.6,42.4,88.6,42.4 M88.6,34.1h-7.4v15.4h2
		c1.4,0,1.9-0.4,1.9-1.9v-2.1h4.6c4.6,0,7.2-2.3,7.2-5.7C96.9,36.4,94.1,34.1,88.6,34.1 M121,42.4c0.8-2.1,2.8-5.4,2.8-5.4
		s2,3.3,2.8,5.4H121z M126.1,34.1h-4.5c-3.5,4.8-5.8,10.1-6.9,15.4h1.4c2.3,0,2.6,0,3.2-2.3c0.2-0.5,0.3-1.1,0.5-1.6h8
		c0.2,0.6,0.4,1.1,0.5,1.6c0.7,2.3,1,2.3,3.2,2.3h1.4C131.9,44.2,129.5,38.8,126.1,34.1 M106.2,39.9c-3-0.5-3.7-0.8-3.7-1.7
		c0-0.9,1.3-1.1,3.4-1.1c3,0,5,0.5,6.3,0.7c0.3-1.7,0.4-2.1,0.6-3.2c-1.9-0.5-4.2-0.9-6.9-0.9c-4.3,0-7.2,1.1-7.2,4.7
		c0,3.2,2.6,4.4,6.4,5c3.4,0.5,4.4,0.5,4.4,1.7c0,0.9-0.7,1.3-3.9,1.3c-1.5,0-4.9-0.4-6.4-0.7c-0.4,1.6-0.5,3,0.8,3.4
		c1.5,0.4,3.7,0.6,5.3,0.6c4.8,0,8-1.3,8-4.7C113.3,41.1,110.3,40.5,106.2,39.9 M74.1,41.9c0,3-1.5,4.4-4.4,4.4
		c-2.9,0-4.4-1.4-4.4-4.4v-7.9h-2c-1.4,0-1.9,0.4-1.9,1.9v6.2c0,5.1,3.6,7.6,8.3,7.6c4.6,0,8.3-2.5,8.3-7.6v-8.1h-3.9V41.9z"/>
</g>
</svg>
