<?xml version="1.0" encoding="utf-8"?>
<!-- Generator: Adobe Illustrator 27.9.6, SVG Export Plug-In . SVG Version: 9.03 Build 54986)  -->
<svg version="1.1" id="Calque_1" xmlns="http://www.w3.org/2000/svg" xmlns:xlink="http://www.w3.org/1999/xlink" x="0px" y="0px"
	 viewBox="0 0 150 80" style="enable-background:new 0 0 150 80;" xml:space="preserve">
<style type="text/css">
	.st0{fill:#BCBCBC;}
</style>
<g id="g4105" transform="matrix(0.09093332,0,0,0.09093332,200.64511,-70.039203)">
	<path id="path2163" class="st0" d="M-1920.7,1376.8c-71.3-11.3-126.4-63.5-141.1-133.7c-2.9-13.7-3.8-39.2-2-53.2
		c9.8-75.6,66.1-133.4,142-145.9c14.7-2.4,44.2-1.8,58.1,1.4c60.1,13.2,107.1,55.1,126,112.3c5.8,17.3,8.3,33.6,8.3,52.3
		c0,78.8-54,146.1-131.7,164.2C-1873.3,1377.3-1908.7,1378.7-1920.7,1376.8z M-1903.3,1300.5c-8.8-10.3-22.2-31.6-26.4-41.9
		c-3.8-9.3-4.1-11.5-4.1-23.6c0-12,0.4-14.1,3.6-21.2c6.5-14.1,18.3-22,33.1-22.1c21.7-0.1,37.5,18.5,37.5,43.8
		c-0.1,16.6-8.8,36-26,58.1l-9.9,12.8l9.7-0.9c27.9-2.5,54.1-14.9,73.9-35.1c10.7-10.8,16.1-18.6,22.6-32.1
		c8.5-17.9,11.2-29.6,11.2-50.7c0-14.2-0.5-20-2.8-28.9c-14.4-57.6-70-96.4-128.5-89.7c-49.3,5.6-90.5,41.5-102.5,89.7
		c-4,15.9-4,42.2,0.1,57.4c12.3,45.8,48.7,79.8,94.4,88.1c5,0.9,11.3,1.8,13.9,1.8l4.9,0.1L-1903.3,1300.5z M-1234.6,1309
		c-12.2-2.3-27.1-7.3-34.8-11.7c-18.3-10.5-30.2-30.5-34.4-57.4c-1.9-11.9-0.8-38.3,2.1-49.5c5-19.6,15.3-35,30.2-45.2
		c14.9-10.2,45.9-15.9,71.7-13.3c26.2,2.6,42.2,9.2,55.5,22.6c9.9,10,15.3,20.1,19.3,36.5c3.8,15.2,4,47.1,0.5,60.8
		c-7.7,29.7-25.4,47.6-54.6,55.2C-1192.3,1310.8-1220.2,1311.6-1234.6,1309L-1234.6,1309z M-1191.6,1276.9c9.5-4.3,13.8-8,18.2-16.4
		c5.5-10.3,7.8-21.8,7.8-39.4c0-41-14.4-58.9-47.4-58.9c-15.2,0-23.8,2.8-32,10c-10.9,9.8-15.6,24.4-15.6,48.8
		c0,33.9,10.5,52.7,32.6,58.2C-1219.4,1281.4-1198.7,1280-1191.6,1276.9L-1191.6,1276.9z M-1602.4,1304.4
		c-0.6-1.6-17.2-39.2-36.8-83.3c-19.6-44.2-35.6-80.8-35.6-81.3c0-0.6,7.3-1,16.3-1c14.6,0,16.8,0.3,21.8,2.9c3.1,1.6,7,5.1,8.8,7.9
		c1.8,2.8,12.6,26.9,24,53.7c11.4,26.9,21.1,49.6,21.6,50.5c0.5,1,9.3-19.1,21.5-49.7c11.3-28.2,21.8-53.2,23.3-55.5
		c1.5-2.3,5.3-5.3,8.3-6.9c5.1-2.6,7.2-2.9,23.6-2.9h18.1l-34.8,76.9c-19.1,42.3-36.1,78.8-37.9,81.1c-5.3,7-11.8,9.4-27.2,10.2
		C-1601,1307.5-1601.3,1307.4-1602.4,1304.4L-1602.4,1304.4z M-1423.3,1304.4c-23.7-4.5-43.8-25.5-51.5-53.8
		c-4-14.6-3.9-42.7,0-56.7c6.2-21.7,18.7-39,34.1-47.3c14.3-7.7,19.2-8.3,65.4-8.4l41.8-0.1v15.2v15.2l-36.1,0.6l-36.1,0.6l-8.3,4.1
		c-5.8,2.9-9.4,5.6-11.9,9.2c-3.5,5-6.9,15.6-6.9,21.1v2.9l47.8,0.4l47.8,0.4v14.6v14.6l-47.8,0.4l-47.8,0.4v2.8
		c0,1.5,0.9,6,2.1,10.2c2.8,10,9.7,17.7,19.2,21.5c6.8,2.8,9.4,2.9,43.1,3.4l35.8,0.5v15.1v15.1l-42.2-0.1
		C-1398.1,1305.6-1419.9,1305-1423.3,1304.4L-1423.3,1304.4z M-1049.9,1303.4c-5-1.3-11.4-3.6-14.4-5.1c-7.7-3.9-17.3-14.1-21-22
		c-5.8-12.4-6.2-18.1-6.2-80V1138h13.3c11.5,0,13.9,0.4,17.7,2.8c8.5,5.3,8.2,3.1,8.9,62.5l0.6,53.8l3.1,5.6c2.3,4,4.9,6.5,9.4,8.9
		c6.2,3.1,6.9,3.3,37,3.6l30.8,0.4v15.1v15.1l-35.1-0.1C-1035.8,1305.7-1042.1,1305.4-1049.9,1303.4L-1049.9,1303.4z M-946.2,1227.7
		c0.4-74.4,0.5-78.3,2.8-81.7c4-5.9,8.9-7.7,23.2-8.3l12.9-0.5v78.1c0,86.2,0.3,83.1-8,88.1c-3.4,2-6.4,2.5-17.7,2.5h-13.7
		L-946.2,1227.7z M-886.3,1304.4c0.4-0.9,15.4-35.6,33.4-77.1c36.7-84.3,36.9-84.8,49.5-88.1c8.8-2.3,30.9-2.4,32.6-0.3
		c1,1.3,68.7,156.1,71.9,164.7c0.8,2-0.8,2.1-15.8,2.1c-24.6,0-28.6-2.5-38.2-24.2l-5.8-13.1l-33.8-0.4l-33.8-0.4l-1.3,3.4
		c-0.8,1.9-3.8,8.7-6.9,14.9c-4.4,9.3-6.7,12.3-10.9,15.3c-5.3,3.6-5.8,3.8-23.5,4.1C-883.4,1306-886.8,1305.7-886.3,1304.4
		L-886.3,1304.4z M-768.2,1235.8c-9.7-23.2-23-53.7-23.6-54.6c-0.8-0.9-10,19.7-23.7,52l-1.8,4.1h24.9
		C-773.1,1237.5-767.7,1237.1-768.2,1235.8z"/>
</g>
</svg>
